<svg width="49" height="56" viewBox="0 0 49 56" fill="none" xmlns="http://www.w3.org/2000/svg">
<path d="M7 3.5C3.13906 3.5 0 6.63906 0 10.5V45.5C0 49.3609 3.13906 52.5 7 52.5H42C45.8609 52.5 49 49.3609 49 45.5V18.9547C49 17.0953 48.2672 15.3125 46.9547 14L38.5 5.54531C37.1875 4.23281 35.4047 3.5 33.5453 3.5H7ZM7 14C7 12.0641 8.56406 10.5 10.5 10.5H31.5C33.4359 10.5 35 12.0641 35 14V21C35 22.9359 33.4359 24.5 31.5 24.5H10.5C8.56406 24.5 7 22.9359 7 21V14ZM24.5 45.5C20.6391 45.5 17.5 42.3609 17.5 38.5C17.5 34.6391 20.6391 31.5 24.5 31.5C28.3609 31.5 31.5 34.6391 31.5 38.5C31.5 42.3609 28.3609 45.5 24.5 45.5Z" fill="#EAEAEA"/>
</svg>
