<svg width="40" height="32" viewBox="0 0 40 32" fill="none" xmlns="http://www.w3.org/2000/svg">
<g clip-path="url(#clip0_349_13)">
<path d="M0 30.5V10.7063C0 9.06876 0.99375 7.60001 2.5125 6.99376L19.2563 0.300006C19.7313 0.106256 20.2625 0.106256 20.7437 0.300006L37.4875 6.99376C39.0062 7.60001 40 9.07501 40 10.7063V30.5C40 31.3313 39.3312 32 38.5 32H35.5C34.6688 32 34 31.3313 34 30.5V14C34 12.8938 33.1063 12 32 12H8C6.89375 12 6 12.8938 6 14V30.5C6 31.3313 5.33125 32 4.5 32H1.5C0.66875 32 0 31.3313 0 30.5ZM30.5 32H9.5C8.66875 32 8 31.3313 8 30.5V27H32V30.5C32 31.3313 31.3312 32 30.5 32ZM8 25V21H32V25H8ZM8 19V14H32V19H8Z" fill="#E17121"/>
</g>
<defs>
<clipPath id="clip0_349_13">
<rect width="40" height="32" fill="white"/>
</clipPath>
</defs>
</svg>
