<svg width="44" height="50" viewBox="0 0 44 50" fill="none" xmlns="http://www.w3.org/2000/svg">
<path d="M12.9768 1.72852L12.2857 3.125H3.07143C1.37254 3.125 0 4.52148 0 6.25C0 7.97852 1.37254 9.375 3.07143 9.375H39.9286C41.6275 9.375 43 7.97852 43 6.25C43 4.52148 41.6275 3.125 39.9286 3.125H30.7143L30.0232 1.72852C29.5049 0.664063 28.4395 0 27.2781 0H15.7219C14.5605 0 13.4951 0.664063 12.9768 1.72852ZM39.9286 12.5H3.07143L5.10625 45.6055C5.25982 48.0762 7.27545 50 9.70379 50H33.2962C35.7246 50 37.7402 48.0762 37.8937 45.6055L39.9286 12.5Z" fill="#E17121"/>
</svg>
