<svg width="36" height="32" viewBox="0 0 36 32" fill="none" xmlns="http://www.w3.org/2000/svg">
<g clip-path="url(#clip0_349_17)">
<path d="M15.5 0H13C11.3438 0 10 1.34375 10 3V10C10 12.2063 11.7937 14 14 14H22C24.2062 14 26 12.2063 26 10V3C26 1.34375 24.6562 0 23 0H20.5V5C20.5 5.55 20.05 6 19.5 6H16.5C15.95 6 15.5 5.55 15.5 5V0ZM4 16C1.79375 16 0 17.7938 0 20V28C0 30.2062 1.79375 32 4 32H14C16.2062 32 18 30.2062 18 28V20C18 17.7938 16.2062 16 14 16H11.5V21C11.5 21.55 11.05 22 10.5 22H7.5C6.95 22 6.5 21.55 6.5 21V16H4ZM22 32H32C34.2062 32 36 30.2062 36 28V20C36 17.7938 34.2062 16 32 16H29.5V21C29.5 21.55 29.05 22 28.5 22H25.5C24.95 22 24.5 21.55 24.5 21V16H22C21.0625 16 20.2 16.3187 19.5187 16.8625C19.825 17.5125 20 18.2375 20 19V29C20 29.7625 19.825 30.4875 19.5187 31.1375C20.2 31.6813 21.0625 32 22 32Z" fill="#E17121"/>
</g>
<defs>
<clipPath id="clip0_349_17">
<rect width="36" height="32" fill="white"/>
</clipPath>
</defs>
</svg>
