<svg width="35" height="32" viewBox="0 0 35 32" fill="none" xmlns="http://www.w3.org/2000/svg">
<path d="M11.1866 2.38749C11.7882 2.94374 11.8368 3.88749 11.296 4.50624L6.92101 9.50624C6.65365 9.81249 6.27691 9.99374 5.87587 9.99999C5.47483 10.0062 5.09201 9.84999 4.80642 9.56249L2.36979 7.06249C1.79861 6.47499 1.79861 5.52499 2.36979 4.94374C2.94097 4.36249 3.86458 4.35624 4.42969 4.94374L5.77257 6.32499L9.12066 2.49999C9.66146 1.88124 10.579 1.83124 11.1806 2.38749H11.1866ZM11.1866 12.3875C11.7882 12.9437 11.8368 13.8875 11.296 14.5062L6.92101 19.5062C6.65365 19.8125 6.27691 19.9937 5.87587 20C5.47483 20.0062 5.09201 19.85 4.80642 19.5625L2.36979 17.0625C1.79861 16.475 1.79861 15.525 2.36979 14.9437C2.94097 14.3625 3.86458 14.3562 4.42969 14.9437L5.77257 16.325L9.12066 12.5C9.66146 11.8812 10.579 11.8312 11.1806 12.3875H11.1866ZM15.5556 5.99999C15.5556 4.89374 16.4245 3.99999 17.5 3.99999H31.1111C32.1866 3.99999 33.0556 4.89374 33.0556 5.99999C33.0556 7.10624 32.1866 7.99999 31.1111 7.99999H17.5C16.4245 7.99999 15.5556 7.10624 15.5556 5.99999ZM15.5556 16C15.5556 14.8937 16.4245 14 17.5 14H31.1111C32.1866 14 33.0556 14.8937 33.0556 16C33.0556 17.1062 32.1866 18 31.1111 18H17.5C16.4245 18 15.5556 17.1062 15.5556 16ZM11.6667 26C11.6667 24.8937 12.5356 24 13.6111 24H31.1111C32.1866 24 33.0556 24.8937 33.0556 26C33.0556 27.1062 32.1866 28 31.1111 28H13.6111C12.5356 28 11.6667 27.1062 11.6667 26ZM4.86111 29C3.25087 29 1.94444 27.6562 1.94444 26C1.94444 24.3437 3.25087 23 4.86111 23C6.47135 23 7.77778 24.3437 7.77778 26C7.77778 27.6562 6.47135 29 4.86111 29Z" fill="#E17121"/>
</svg>
