<svg width="132" height="119" viewBox="0 0 132 119" fill="none" xmlns="http://www.w3.org/2000/svg">
<path d="M33.2063 90.1797C32.175 89.9938 31.35 89.8078 30.3188 89.4359C29.2875 89.0641 28.4625 88.8781 27.6375 88.5062C25.7813 87.7625 24.1313 86.8328 22.4813 85.7172C19.1813 83.6719 16.5 80.8828 14.4375 77.5359C12.375 74.375 11.1375 70.6562 10.9313 67.1234C10.725 65.2641 10.9313 63.5906 11.1375 61.7313C11.3438 60.8016 11.55 60.0578 11.7563 59.1281C11.9625 58.1984 12.375 57.4547 12.5813 56.525L12.7875 59.1281C12.7875 60.0578 12.9938 60.8016 13.2 61.7313C13.4063 63.4047 13.8188 65.0781 14.2313 66.5656C15.0563 69.7266 16.2938 72.7016 18.15 75.4906C20.0063 78.2797 22.0688 80.8828 24.75 83.3C25.9875 84.4156 27.4313 85.5312 28.875 86.6469C29.4938 87.2047 30.3188 87.7625 31.1438 88.3203L33.2063 90.1797Z" fill="#42ADE2"/>
<path d="M32.5875 96.8734C31.9688 97.2453 31.1437 97.4313 30.3188 97.6172C29.4937 97.8031 28.875 97.9891 28.05 97.9891C26.6063 98.175 24.9563 98.3609 23.3062 98.175C20.2125 97.9891 16.9125 97.2453 14.2312 95.9437C11.3438 94.6422 8.86875 92.5969 7.21875 90.1797C6.39375 89.0641 5.56875 87.7625 4.95 86.4609C4.74375 85.9031 4.5375 85.1594 4.33125 84.4156C4.33125 83.8578 4.125 83.3 4.125 82.5563C4.74375 83.1141 5.15625 83.6719 5.56875 84.0438C6.1875 84.6016 6.6 85.1594 7.0125 85.5312C8.04375 86.4609 8.86875 87.3906 9.9 88.1344C11.9625 89.8078 14.025 91.2953 16.5 92.4109C18.7688 93.5266 21.45 94.4563 23.925 95.2C25.1625 95.5719 26.6063 95.7578 28.05 96.1297C28.6688 96.3156 29.4938 96.3156 30.1125 96.5016C31.1438 96.6875 31.7625 96.6875 32.5875 96.8734Z" fill="#42ADE2"/>
<path d="M79.2 6.50781C80.2312 6.69375 81.0562 7.06562 82.0874 7.4375C83.1187 7.80937 83.9437 8.18125 84.7687 8.55312C86.6249 9.48281 88.2749 10.4125 89.9249 11.5281C93.2249 13.7594 95.9062 16.7344 97.7624 20.0812C99.6187 23.4281 100.65 27.1469 100.65 30.6797C100.65 32.5391 100.444 34.2125 100.031 36.0719C99.8249 37.0016 99.6187 37.7453 99.2062 38.675C98.7937 39.6047 98.5874 40.3484 98.1749 41.0922L97.9687 38.4891C97.9687 37.5594 97.9687 36.8156 97.7624 35.8859L97.1437 30.8656C96.5249 27.7047 95.2874 24.5437 93.6374 21.5687C91.9874 18.5938 89.9249 15.9906 87.45 13.5734C86.2125 12.2719 84.7687 11.1562 83.5312 9.85469C82.9124 9.29688 82.0875 8.73906 81.2625 8.18125L79.2 6.50781Z" fill="#42ADE2"/>
<path d="M97.1438 5.76406C97.9688 5.95 98.5875 6.13594 99.2063 6.50781C99.825 6.69375 100.65 7.06562 101.269 7.4375C102.506 8.18125 103.744 8.925 104.981 9.85469C107.25 11.7141 109.106 13.9453 110.138 16.5484C111.375 19.1516 111.788 21.9406 111.375 24.7297C111.169 26.0312 110.756 27.3328 110.344 28.6344C110.138 29.1922 109.725 29.9359 109.519 30.4937C109.106 31.0516 108.9 31.6094 108.281 32.1672V28.4484C108.281 27.1469 108.075 26.0312 108.075 24.9156C107.663 22.4984 107.25 20.2672 106.219 18.2219C105.188 15.9906 103.95 14.1312 102.506 12.0859C101.681 11.1562 100.856 10.0406 100.031 9.11094C99.6188 8.55312 99.2063 8.18125 98.5876 7.62344C98.1751 6.69375 97.5563 6.13594 97.1438 5.76406Z" fill="#42ADE2"/>
<path d="M20.6251 33.4688C16.5001 35.1422 15.0563 39.6047 16.9126 43.3234L42.9001 92.225L57.3376 86.0891L31.3501 37.0016C29.4938 33.2828 24.7501 31.6094 20.6251 33.4688Z" fill="#FFDD67"/>
<path d="M88.8938 72.3297L104.156 65.8219L74.4563 10.0406C72.3938 6.32188 67.4438 4.64844 63.1126 6.50781C58.9876 8.36719 57.1313 12.8297 59.1938 16.7344L88.8938 72.3297Z" fill="#FFDD67"/>
<path d="M63.3188 6.32188C62.9063 6.50781 62.4938 6.69375 62.0813 7.06563C66 6.13594 70.1251 7.80938 71.9813 11.1563L101.681 66.9375L104.363 65.8219L74.6625 10.0406C72.6 6.13594 67.65 4.4625 63.3188 6.32188Z" fill="#EBA352"/>
<path d="M57.3375 85.9031L73.2187 79.0234L42.9 22.1266C40.8375 18.2219 35.475 16.3625 31.1437 18.2219C26.8125 20.0812 24.9562 24.9156 27.0187 28.8203L57.3375 85.9031Z" fill="#FFDD67"/>
<path d="M31.1438 18.4078C30.7313 18.5938 30.3188 18.7797 29.9062 19.1516C33.825 18.2219 38.3625 19.8953 40.2188 23.4281L58.9875 58.9422L63.525 61.3594L42.9 22.3125C40.8375 18.2219 35.6813 16.5484 31.1438 18.4078Z" fill="#EBA352"/>
<path d="M70.7437 74.5609L86.625 67.6813L56.3062 10.7844C54.2437 6.87969 48.8812 5.02031 44.55 7.06563C40.2187 8.925 38.3625 13.7594 40.425 17.6641L70.7437 74.5609Z" fill="#FFDD67"/>
<path d="M44.55 6.87969C44.1375 7.06562 43.725 7.4375 43.3125 7.62344C47.2313 6.69375 51.7688 8.36719 53.625 11.9L74.8687 52.0625L79.4062 54.4797L56.3062 10.7844C54.2437 6.69375 48.8813 5.02031 44.55 6.87969Z" fill="#EBA352"/>
<path d="M20.625 33.4687C20.2125 33.6547 19.8 33.8406 19.3875 34.2125C23.1 33.2828 27.0187 34.9563 28.6687 38.3031L44.1375 67.4953L48.675 69.9125L31.35 37.1875C29.4937 33.2828 24.75 31.6094 20.625 33.4687Z" fill="#EBA352"/>
<path d="M125.4 27.8906C119.831 23.9859 110.756 28.2625 106.219 41.65C103.125 50.9469 102.713 53.7359 96.1125 56.525L92.4 49.6453C92.4 49.6453 33.825 75.1187 36.0938 79.2094C36.0938 79.2094 43.1063 98.9187 55.0688 108.03C72.8063 121.789 114.263 107.1 116.119 71.5859C117.15 50.9469 131.381 32.1672 125.4 27.8906Z" fill="#FFDD67"/>
<path d="M125.4 27.8906C124.369 27.1469 123.131 26.775 121.894 26.5891C122.1 26.775 122.512 26.775 122.719 26.9609C128.906 31.2375 122.512 41.0922 119.006 50.0172C116.119 57.0828 113.644 64.3344 114.056 71.4C115.706 102.266 81.2625 116.955 60.6375 111.377C80.85 119 118.387 104.497 116.737 72.3297C116.325 65.2641 118.594 58.3844 121.687 50.9469C124.987 42.0219 131.381 32.1672 125.4 27.8906Z" fill="#EBA352"/>
<path d="M97.9688 55.7812C85.1813 57.0828 66.4125 73.6312 79.6125 91.6672C69.9188 73.4453 85.8 61.1734 95.9063 56.8969C96.9375 56.1531 97.9688 55.7812 97.9688 55.7812Z" fill="#EBA352"/>
</svg>
