<svg width="40" height="64" viewBox="0 0 40 64" fill="none" xmlns="http://www.w3.org/2000/svg">
<g clip-path="url(#clip0_344_350)">
<path d="M38.825 18.825C40.3875 17.2625 40.3875 14.725 38.825 13.1625C37.2625 11.6 34.725 11.6 33.1625 13.1625L20 26.3375L6.82498 13.175C5.26248 11.6125 2.72498 11.6125 1.16248 13.175C-0.400024 14.7375 -0.400024 17.275 1.16248 18.8375L14.3375 32L1.17498 45.175C-0.387524 46.7375 -0.387524 49.275 1.17498 50.8375C2.73748 52.4 5.27498 52.4 6.83748 50.8375L20 37.6625L33.175 50.825C34.7375 52.3875 37.275 52.3875 38.8375 50.825C40.4 49.2625 40.4 46.725 38.8375 45.1625L25.6625 32L38.825 18.825Z" fill="#EAEAEA"/>
</g>
<defs>
<clipPath id="clip0_344_350">
<rect width="40" height="64" fill="white"/>
</clipPath>
</defs>
</svg>
