<?xml version="1.0"?>
<svg xmlns="http://www.w3.org/2000/svg" width="50" height="50" viewBox="0 0 50 50" fill="#eaeaea">
<g clip-path="url(#clip0_343_305)">
<path d="M46.0547 2.11914C43.916 -0.0195313 40.459 -0.0195313 38.3203 2.11914L35.3809 5.04883L44.9414 14.6094L47.8809 11.6699C50.0195 9.53125 50.0195 6.07422 47.8809 3.93555L46.0547 2.11914ZM16.8359 23.6035C16.2402 24.1992 15.7812 24.9316 15.5176 25.7422L12.627 34.4141C12.3438 35.2539 12.5684 36.1816 13.1934 36.8164C13.8184 37.4512 14.7461 37.666 15.5957 37.3828L24.2676 34.4922C25.0684 34.2188 25.8008 33.7695 26.4062 33.1738L42.7441 16.8262L33.1738 7.25586L16.8359 23.6035ZM9.375 6.25C4.19922 6.25 0 10.4492 0 15.625V40.625C0 45.8008 4.19922 50 9.375 50H34.375C39.5508 50 43.75 45.8008 43.75 40.625V31.25C43.75 29.5215 42.3535 28.125 40.625 28.125C38.8965 28.125 37.5 29.5215 37.5 31.25V40.625C37.5 42.3535 36.1035 43.75 34.375 43.75H9.375C7.64648 43.75 6.25 42.3535 6.25 40.625V15.625C6.25 13.8965 7.64648 12.5 9.375 12.5H18.75C20.4785 12.5 21.875 11.1035 21.875 9.375C21.875 7.64648 20.4785 6.25 18.75 6.25H9.375Z" fill="#eaeaea"/>
</g>
<defs>
<clipPath id="clip0_343_305">
<rect width="50" height="50" fill="#eaeaea"/>
</clipPath>
</defs>
</svg>
