<?xml version="1.0"?>
<svg xmlns="http://www.w3.org/2000/svg" width="44" height="50" viewBox="0 0 44 50" fill="#eaeaea">
<g clip-path="url(#clip0_343_307)">
<path d="M25.3846 6.38462C25.3846 4.5125 23.8721 3 22 3C20.1279 3 18.6154 4.5125 18.6154 6.38462V21.6154H3.38462C1.5125 21.6154 0 23.1279 0 25C0 26.8721 1.5125 28.3846 3.38462 28.3846H18.6154V43.6154C18.6154 45.4875 20.1279 47 22 47C23.8721 47 25.3846 45.4875 25.3846 43.6154V28.3846H40.6154C42.4875 28.3846 44 26.8721 44 25C44 23.1279 42.4875 21.6154 40.6154 21.6154H25.3846V6.38462Z" fill="#eaeaea"/>
</g>
<defs>
<clipPath id="clip0_343_307">
<rect width="43.75" height="50" fill="#eaeaea"/>
</clipPath>
</defs>
</svg>
